<?xml version="1.0" encoding="UTF-8"?>
<!DOCTYPE svg PUBLIC "-//W3C//DTD SVG 1.1//EN" "http://www.w3.org/Graphics/SVG/1.1/DTD/svg11.dtd">
<svg xmlns="http://www.w3.org/2000/svg" version="1.1" width="512px" height="512px" style="shape-rendering:geometricPrecision; text-rendering:geometricPrecision; image-rendering:optimizeQuality; fill-rule:evenodd; clip-rule:evenodd" xmlns:xlink="http://www.w3.org/1999/xlink">
<g><path style="opacity:0.987" fill="#ff7e0e" d="M 511.5,292.5 C 511.5,302.833 511.5,313.167 511.5,323.5C 503.935,371.236 478.268,405.403 434.5,426C 420.413,431.855 405.746,435.188 390.5,436C 294.833,436.667 199.167,436.667 103.5,436C 57.996,431.813 25.8293,408.979 7,367.5C 3.69433,358.598 1.19433,349.598 -0.5,340.5C -0.5,330.833 -0.5,321.167 -0.5,311.5C 8.89224,262.269 37.8922,231.102 86.5,218C 95.0911,216.343 103.758,215.509 112.5,215.5C 113.448,160.411 137.448,118.911 184.5,91C 231.233,68.0057 277.233,69.3391 322.5,95C 354.067,115.081 374.734,143.248 384.5,179.5C 445.897,183.596 486.73,214.596 507,272.5C 508.622,279.276 510.122,285.943 511.5,292.5 Z M 195.5,242.5 C 213.61,239.881 229.61,244.381 243.5,256C 246.237,259.067 248.571,262.401 250.5,266C 244.773,270.715 238.773,275.215 232.5,279.5C 223.798,266.65 211.798,262.15 196.5,266C 181.992,272.362 174.992,283.529 175.5,299.5C 176.299,325.146 189.299,336.646 214.5,334C 222.451,331.715 228.285,326.881 232,319.5C 238.833,323.667 245.667,327.833 252.5,332C 245.192,344.961 234.192,352.961 219.5,356C 182.754,360.873 159.588,345.373 150,309.5C 146.756,274.652 161.923,252.318 195.5,242.5 Z M 306.5,242.5 C 342.151,240.314 363.985,256.647 372,291.5C 374.345,321.993 361.511,343.159 333.5,355C 301.728,362.362 278.561,351.529 264,322.5C 253.812,292.4 261.645,268.233 287.5,250C 293.599,246.585 299.932,244.085 306.5,242.5 Z M 390.5,334.5 C 398.317,333.646 404.483,336.312 409,342.5C 410.007,347.111 409.34,351.445 407,355.5C 401.587,359.457 396.087,363.29 390.5,367C 397.158,367.5 403.825,367.666 410.5,367.5C 410.5,370.833 410.5,374.167 410.5,377.5C 398.5,377.5 386.5,377.5 374.5,377.5C 373.99,372.186 375.49,367.52 379,363.5C 383.916,359.957 389.083,356.79 394.5,354C 397.978,351.294 398.311,348.294 395.5,345C 389.716,343.491 384.883,344.991 381,349.5C 379.207,346.705 377.04,344.205 374.5,342C 379.081,337.703 384.415,335.203 390.5,334.5 Z"/></g>
<g><path style="opacity:0.964" fill="#ff7e0e" d="M 313.5,264.5 C 335.102,266.103 346.102,277.77 346.5,299.5C 344.682,328.211 330.015,339.044 302.5,332C 290.832,324.67 285.165,314.003 285.5,300C 285.483,280.438 294.816,268.604 313.5,264.5 Z"/></g>
</svg>
