<?xml version="1.0" encoding="UTF-8"?>
<!DOCTYPE svg PUBLIC "-//W3C//DTD SVG 1.1//EN" "http://www.w3.org/Graphics/SVG/1.1/DTD/svg11.dtd">
<svg xmlns="http://www.w3.org/2000/svg" version="1.1" width="512px" height="512px" style="shape-rendering:geometricPrecision; text-rendering:geometricPrecision; image-rendering:optimizeQuality; fill-rule:evenodd; clip-rule:evenodd" xmlns:xlink="http://www.w3.org/1999/xlink">
<g><path style="opacity:0.986" fill="#ff7e0e" d="M 152.5,-0.5 C 221.167,-0.5 289.833,-0.5 358.5,-0.5C 392.046,7.212 412.879,27.8787 421,61.5C 421.667,149.833 421.667,238.167 421,326.5C 414.845,356.989 397.012,377.155 367.5,387C 364.529,387.794 361.529,388.461 358.5,389C 289.833,389.667 221.167,389.667 152.5,389C 120.843,382.344 100.343,363.511 91,332.5C 89.346,242.202 89.0127,151.869 90,61.5C 95.1431,35.0527 109.976,16.2194 134.5,5C 140.519,2.83459 146.519,1.00126 152.5,-0.5 Z M 164.5,29.5 C 228.189,29.0331 291.856,29.5331 355.5,31C 381.42,38.9359 392.92,56.4359 390,83.5C 385.167,101.667 373.667,113.167 355.5,118C 322.19,119.134 288.857,119.634 255.5,119.5C 222.143,119.634 188.81,119.134 155.5,118C 129.58,110.064 118.08,92.5641 121,65.5C 127.317,43.4463 141.817,31.4463 164.5,29.5 Z M 164.5,149.5 C 228.189,149.033 291.856,149.533 355.5,151C 381.42,158.936 392.92,176.436 390,203.5C 385.167,221.667 373.667,233.167 355.5,238C 322.19,239.134 288.857,239.634 255.5,239.5C 222.143,239.634 188.81,239.134 155.5,238C 129.58,230.064 118.08,212.564 121,185.5C 127.317,163.446 141.817,151.446 164.5,149.5 Z M 164.5,269.5 C 228.189,269.033 291.856,269.533 355.5,271C 381.42,278.936 392.92,296.436 390,323.5C 385.167,341.667 373.667,353.167 355.5,358C 322.19,359.134 288.857,359.634 255.5,359.5C 222.143,359.634 188.81,359.134 155.5,358C 129.58,350.064 118.08,332.564 121,305.5C 127.317,283.446 141.817,271.446 164.5,269.5 Z"/></g>
<g><path style="opacity:0.991" fill="#ff7e0e" d="M 158.5,59.5 C 223.168,59.3333 287.834,59.5 352.5,60C 360.915,64.3476 363.748,71.1809 361,80.5C 359.5,84.6667 356.667,87.5 352.5,89C 287.833,89.6667 223.167,89.6667 158.5,89C 149.525,83.8483 147.025,76.3483 151,66.5C 153.015,63.5883 155.515,61.255 158.5,59.5 Z"/></g>
<g><path style="opacity:0.991" fill="#ff7e0e" d="M 158.5,179.5 C 223.168,179.333 287.834,179.5 352.5,180C 360.915,184.348 363.748,191.181 361,200.5C 359.5,204.667 356.667,207.5 352.5,209C 287.833,209.667 223.167,209.667 158.5,209C 149.525,203.848 147.025,196.348 151,186.5C 153.015,183.588 155.515,181.255 158.5,179.5 Z"/></g>
<g><path style="opacity:0.991" fill="#ff7e0e" d="M 158.5,299.5 C 223.168,299.333 287.834,299.5 352.5,300C 360.915,304.348 363.748,311.181 361,320.5C 359.5,324.667 356.667,327.5 352.5,329C 287.833,329.667 223.167,329.667 158.5,329C 149.525,323.848 147.025,316.348 151,306.5C 153.015,303.588 155.515,301.255 158.5,299.5 Z"/></g>
<g><path style="opacity:0.985" fill="#ff7e0e" d="M 330.5,511.5 C 280.5,511.5 230.5,511.5 180.5,511.5C 149.964,470.274 119.298,429.107 88.5,388C 88.8333,387.833 89.1667,387.667 89.5,387.5C 110,407.578 134.666,418.078 163.5,419C 224.833,419.667 286.167,419.667 347.5,419C 375.996,418.246 400.33,407.913 420.5,388C 421.167,387.333 421.833,387.333 422.5,388C 391.702,429.107 361.036,470.274 330.5,511.5 Z"/></g>
</svg>
