<?xml version="1.0" encoding="UTF-8"?>
<!DOCTYPE svg PUBLIC "-//W3C//DTD SVG 1.1//EN" "http://www.w3.org/Graphics/SVG/1.1/DTD/svg11.dtd">
<svg xmlns="http://www.w3.org/2000/svg" version="1.1" width="512px" height="512px" style="shape-rendering:geometricPrecision; text-rendering:geometricPrecision; image-rendering:optimizeQuality; fill-rule:evenodd; clip-rule:evenodd" xmlns:xlink="http://www.w3.org/1999/xlink">
<g><path style="opacity:0.985" fill="#ff7e0e" d="M 232.5,-0.5 C 247.5,-0.5 262.5,-0.5 277.5,-0.5C 377.764,12.0403 449.264,64.0403 492,155.5C 502.135,180.377 508.635,206.043 511.5,232.5C 511.5,247.833 511.5,263.167 511.5,278.5C 500.612,368.144 456.279,435.644 378.5,481C 347.029,497.695 313.696,507.861 278.5,511.5C 263.167,511.5 247.833,511.5 232.5,511.5C 142.856,500.612 75.3562,456.279 30,378.5C 13.3053,347.029 3.1386,313.696 -0.5,278.5C -0.5,263.167 -0.5,247.833 -0.5,232.5C 10.3875,142.857 54.7208,75.3573 132.5,30C 163.971,13.3053 197.304,3.1386 232.5,-0.5 Z M 237.5,51.5 C 322.111,47.8834 386.945,81.5501 432,152.5C 436.886,161.259 440.886,170.259 444,179.5C 370.132,147.184 292.965,134.684 212.5,142C 161.833,146.291 113.333,158.791 67,179.5C 92.5061,117.339 137.673,76.8394 202.5,58C 214.2,55.2247 225.866,53.0581 237.5,51.5 Z M 250.5,217.5 C 276.121,217.457 290.454,230.123 293.5,255.5C 291.167,278.5 278.5,291.167 255.5,293.5C 232.5,291.167 219.833,278.5 217.5,255.5C 219.308,234.701 230.308,222.034 250.5,217.5 Z M 52.5,271.5 C 72.5974,272.031 91.2641,277.531 108.5,288C 159.557,320.416 193.057,365.916 209,424.5C 211.432,434.357 212.599,444.357 212.5,454.5C 143.875,438.375 95.3748,398.042 67,333.5C 58.6993,313.631 53.8659,292.964 52.5,271.5 Z M 446.5,271.5 C 450.5,271.5 454.5,271.5 458.5,271.5C 449.471,351.335 408.805,408.502 336.5,443C 324.246,447.974 311.746,452.14 299,455.5C 298.809,435.786 302.476,416.786 310,398.5C 328.176,353.663 357.343,317.83 397.5,291C 412.813,281.625 429.146,275.125 446.5,271.5 Z"/></g>
</svg>
