<?xml version="1.0" encoding="UTF-8"?>
<!DOCTYPE svg PUBLIC "-//W3C//DTD SVG 1.1//EN" "http://www.w3.org/Graphics/SVG/1.1/DTD/svg11.dtd">
<svg xmlns="http://www.w3.org/2000/svg" version="1.1" width="512px" height="512px" style="shape-rendering:geometricPrecision; text-rendering:geometricPrecision; image-rendering:optimizeQuality; fill-rule:evenodd; clip-rule:evenodd" xmlns:xlink="http://www.w3.org/1999/xlink">
<g><path style="opacity:0.985" fill="#ff7e0e" d="M 205.5,12.5 C 238.835,12.3333 272.168,12.5 305.5,13C 318.333,15.1667 325.833,22.6667 328,35.5C 329.948,54.0367 332.115,72.5367 334.5,91C 333.891,102.605 328.225,110.605 317.5,115C 310.239,116.348 302.906,116.848 295.5,116.5C 295.5,123.833 295.5,131.167 295.5,138.5C 303.167,138.5 310.833,138.5 318.5,138.5C 318.5,172.833 318.5,207.167 318.5,241.5C 276.5,241.5 234.5,241.5 192.5,241.5C 192.5,207.167 192.5,172.833 192.5,138.5C 200.167,138.5 207.833,138.5 215.5,138.5C 215.5,131.167 215.5,123.833 215.5,116.5C 187.959,119.789 175.459,107.789 178,80.5C 179.836,63.8116 181.836,47.1449 184,30.5C 187.74,20.2493 194.906,14.2493 205.5,12.5 Z M 230.5,116.5 C 247.167,116.5 263.833,116.5 280.5,116.5C 280.5,123.833 280.5,131.167 280.5,138.5C 263.833,138.5 247.167,138.5 230.5,138.5C 230.5,131.167 230.5,123.833 230.5,116.5 Z"/></g>
<g><path style="opacity:0.979" fill="#ff7e0e" d="M 331.5,137.5 C 371.275,139.35 392.608,160.017 395.5,199.5C 393.018,223.147 392.851,246.814 395,270.5C 397.095,294.929 399.929,319.262 403.5,343.5C 377.346,348.319 357.846,362.319 345,385.5C 342.215,423.16 339.715,460.827 337.5,498.5C 282.833,498.5 228.167,498.5 173.5,498.5C 171.465,460.142 168.965,421.809 166,383.5C 160.623,377.792 155.623,371.792 151,365.5C 139.673,351.92 125.173,344.92 107.5,344.5C 113.145,308.385 116.478,272.052 117.5,235.5C 117.497,223.463 116.83,211.463 115.5,199.5C 118.576,160.092 139.909,139.759 179.5,138.5C 179.5,218.5 179.5,298.5 179.5,378.5C 230.167,378.5 280.833,378.5 331.5,378.5C 331.5,298.167 331.5,217.833 331.5,137.5 Z"/></g>
<g><path style="opacity:0.99" fill="#ff7e0e" d="M 192.5,254.5 C 234.5,254.5 276.5,254.5 318.5,254.5C 318.5,291.5 318.5,328.5 318.5,365.5C 276.5,365.5 234.5,365.5 192.5,365.5C 192.5,328.5 192.5,291.5 192.5,254.5 Z"/></g>
<g><path style="opacity:0.978" fill="#ff7e0e" d="M 109.5,356.5 C 122.514,358.427 133.348,364.427 142,374.5C 145.285,379.454 148.952,384.12 153,388.5C 156.299,424.874 158.799,461.207 160.5,497.5C 110.064,498.891 79.8973,474.891 70,425.5C 64.7129,402.798 70.2129,383.298 86.5,367C 93.5233,361.817 101.19,358.317 109.5,356.5 Z"/></g>
<g><path style="opacity:0.979" fill="#ff7e0e" d="M 399.5,356.5 C 422.081,361.248 435.915,374.914 441,397.5C 443.601,423.428 437.601,447.095 423,468.5C 403.848,490.282 379.681,500.282 350.5,498.5C 352.052,461.434 354.552,424.434 358,387.5C 368.125,372.189 381.958,361.856 399.5,356.5 Z"/></g>
</svg>
