<?xml version="1.0" encoding="UTF-8"?>
<!DOCTYPE svg PUBLIC "-//W3C//DTD SVG 1.1//EN" "http://www.w3.org/Graphics/SVG/1.1/DTD/svg11.dtd">
<svg xmlns="http://www.w3.org/2000/svg" version="1.1" width="512px" height="512px" style="shape-rendering:geometricPrecision; text-rendering:geometricPrecision; image-rendering:optimizeQuality; fill-rule:evenodd; clip-rule:evenodd" xmlns:xlink="http://www.w3.org/1999/xlink">
<g><path style="opacity:0.993" fill="#ff7e0e" d="M -0.5,276.5 C -0.5,262.5 -0.5,248.5 -0.5,234.5C 10.9788,153.193 53.9788,95.3599 128.5,61C 163.237,47.3427 199.237,42.176 236.5,45.5C 283.167,185.5 283.167,325.5 236.5,465.5C 162.884,471.807 101.051,448.14 51,394.5C 22.0925,360.346 4.92579,321.013 -0.5,276.5 Z"/></g>
<g><path style="opacity:0.981" fill="#ff7e0e" d="M 266.5,46.5 C 284.995,45.3378 303.662,45.1712 322.5,46C 328.251,49.1005 331.751,53.9339 333,60.5C 371.605,192.707 370.938,324.707 331,456.5C 329.5,460.667 326.667,463.5 322.5,465C 303.833,465.667 285.167,465.667 266.5,465C 305.758,345.764 311.258,224.931 283,102.5C 278.718,83.3515 273.218,64.6848 266.5,46.5 Z"/></g>
<g><path style="opacity:0.953" fill="#ff7e0e" d="M 511.5,84.5 C 511.5,88.5 511.5,92.5 511.5,96.5C 509.685,100.479 506.685,103.312 502.5,105C 472.5,115 442.5,125 412.5,135C 395.199,136.908 388.699,129.408 393,112.5C 394.765,109.527 397.265,107.36 400.5,106C 430.5,96 460.5,86 490.5,76C 499.919,73.3888 506.919,76.2221 511.5,84.5 Z"/></g>
<g><path style="opacity:0.953" fill="#ff7e0e" d="M 511.5,174.5 C 511.5,178.5 511.5,182.5 511.5,186.5C 509.685,190.479 506.685,193.312 502.5,195C 472.5,205 442.5,215 412.5,225C 395.199,226.908 388.699,219.408 393,202.5C 394.765,199.527 397.265,197.36 400.5,196C 430.5,186 460.5,176 490.5,166C 499.919,163.389 506.919,166.222 511.5,174.5 Z"/></g>
<g><path style="opacity:0.953" fill="#ff7e0e" d="M 511.5,264.5 C 511.5,268.5 511.5,272.5 511.5,276.5C 509.685,280.479 506.685,283.312 502.5,285C 472.5,295 442.5,305 412.5,315C 395.199,316.908 388.699,309.408 393,292.5C 394.765,289.527 397.265,287.36 400.5,286C 430.5,276 460.5,266 490.5,256C 499.919,253.389 506.919,256.222 511.5,264.5 Z"/></g>
<g><path style="opacity:0.953" fill="#ff7e0e" d="M 511.5,354.5 C 511.5,358.5 511.5,362.5 511.5,366.5C 509.685,370.479 506.685,373.312 502.5,375C 472.5,385 442.5,395 412.5,405C 395.199,406.908 388.699,399.408 393,382.5C 394.765,379.527 397.265,377.36 400.5,376C 430.5,366 460.5,356 490.5,346C 499.919,343.389 506.919,346.222 511.5,354.5 Z"/></g>
</svg>
