<?xml version="1.0" encoding="UTF-8"?>
<!DOCTYPE svg PUBLIC "-//W3C//DTD SVG 1.1//EN" "http://www.w3.org/Graphics/SVG/1.1/DTD/svg11.dtd">
<svg xmlns="http://www.w3.org/2000/svg" version="1.1" width="512px" height="512px" style="shape-rendering:geometricPrecision; text-rendering:geometricPrecision; image-rendering:optimizeQuality; fill-rule:evenodd; clip-rule:evenodd" xmlns:xlink="http://www.w3.org/1999/xlink">
<g><path style="opacity:0.984" fill="#ff7e0e" d="M 54.5,27.5 C 188.5,27.3333 322.5,27.5 456.5,28C 470.667,31.5 479.5,40.3333 483,54.5C 483.5,148.833 483.667,243.166 483.5,337.5C 331.5,337.5 179.5,337.5 27.5,337.5C 27.3333,243.166 27.5,148.833 28,54.5C 31.682,40.3189 40.5154,31.3189 54.5,27.5 Z M 132.5,77.5 C 158.087,75.0376 176.254,85.3709 187,108.5C 194.498,137.161 184.998,157.828 158.5,170.5C 157.667,205.162 157.167,239.829 157,274.5C 152.76,286.036 144.927,289.536 133.5,285C 130.538,282.713 128.371,279.88 127,276.5C 126.667,241.5 126.333,206.5 126,171.5C 100.943,160.054 90.6099,140.721 95,113.5C 101.017,94.6033 113.517,82.6033 132.5,77.5 Z M 359.5,77.5 C 387.889,74.7542 406.723,86.7542 416,113.5C 420.39,140.721 410.057,160.054 385,171.5C 384.667,206.5 384.333,241.5 384,276.5C 378.465,287.455 370.299,289.955 359.5,284C 357.044,281.592 355.211,278.759 354,275.5C 353.833,240.495 353.333,205.495 352.5,170.5C 326.002,157.828 316.502,137.161 324,108.5C 330.771,92.2206 342.604,81.8872 359.5,77.5 Z M 251.5,93.5 C 261.452,92.7222 267.952,97.0555 271,106.5C 271.167,141.171 271.667,175.838 272.5,210.5C 299.63,224.042 308.796,245.375 300,274.5C 285.981,300.402 264.814,308.902 236.5,300C 212.999,287.828 203.833,268.661 209,242.5C 214.123,227.542 223.956,216.875 238.5,210.5C 239.333,175.838 239.833,141.171 240,106.5C 241.617,100.058 245.45,95.7245 251.5,93.5 Z"/></g>
<g><path style="opacity:0.926" fill="#ff7e0e" d="M 138.5,108.5 C 152.75,108.344 159.25,115.344 158,129.5C 153.146,141.568 144.646,145.068 132.5,140C 121.833,130.333 121.833,120.667 132.5,111C 134.611,110.155 136.611,109.322 138.5,108.5 Z"/></g>
<g><path style="opacity:0.93" fill="#ff7e0e" d="M 365.5,108.5 C 383.387,109.598 389.221,118.598 383,135.5C 375.819,143.193 367.652,144.359 358.5,139C 350.5,130 350.5,121 358.5,112C 360.925,110.787 363.259,109.621 365.5,108.5 Z"/></g>
<g><path style="opacity:0.923" fill="#ff7e0e" d="M 252.5,238.5 C 269.322,239.817 275.156,248.483 270,264.5C 260.347,275.163 250.681,275.163 241,264.5C 235.89,251.73 239.723,243.063 252.5,238.5 Z"/></g>
<g><path style="opacity:0.983" fill="#ff7e0e" d="M 27.5,368.5 C 179.5,368.5 331.5,368.5 483.5,368.5C 483.667,397.835 483.5,427.169 483,456.5C 479.5,470.667 470.667,479.5 456.5,483C 322.5,483.667 188.5,483.667 54.5,483C 40.3333,479.5 31.5,470.667 28,456.5C 27.5,427.169 27.3334,397.835 27.5,368.5 Z M 186.5,402.5 C 198.114,401.641 204.781,406.975 206.5,418.5C 202.98,432.26 194.646,436.427 181.5,431C 171.329,419.361 172.996,409.861 186.5,402.5 Z M 251.5,402.5 C 263.114,401.641 269.781,406.975 271.5,418.5C 267.98,432.26 259.646,436.427 246.5,431C 236.329,419.361 237.996,409.861 251.5,402.5 Z M 316.5,402.5 C 328.114,401.641 334.781,406.975 336.5,418.5C 332.98,432.26 324.646,436.427 311.5,431C 301.329,419.361 302.996,409.861 316.5,402.5 Z"/></g>
</svg>
