<?xml version="1.0" encoding="UTF-8"?>
<!DOCTYPE svg PUBLIC "-//W3C//DTD SVG 1.1//EN" "http://www.w3.org/Graphics/SVG/1.1/DTD/svg11.dtd">
<svg xmlns="http://www.w3.org/2000/svg" version="1.1" width="512px" height="512px" style="shape-rendering:geometricPrecision; text-rendering:geometricPrecision; image-rendering:optimizeQuality; fill-rule:evenodd; clip-rule:evenodd" xmlns:xlink="http://www.w3.org/1999/xlink">
<g><path style="opacity:0.988" fill="#ff7e0e" d="M 272.5,0.5 C 281.642,-1.26859 286.975,2.39808 288.5,11.5C 280.405,71.4969 272.405,131.497 264.5,191.5C 312.501,191.333 360.501,191.5 408.5,192C 412.953,194.071 414.953,197.571 414.5,202.5C 413.553,207.413 411.719,212.08 409,216.5C 355.413,311.338 302.08,406.338 249,501.5C 245.375,510.228 239.209,512.728 230.5,509C 227.017,506.394 225.35,502.894 225.5,498.5C 231.607,438.924 237.941,379.424 244.5,320C 197.167,319.667 149.833,319.333 102.5,319C 95.6801,314.539 94.1801,308.706 98,301.5C 154.333,202.833 210.667,104.167 267,5.5C 268.73,3.59809 270.563,1.93142 272.5,0.5 Z"/></g>
</svg>
