<?xml version="1.0" encoding="UTF-8"?>
<!DOCTYPE svg PUBLIC "-//W3C//DTD SVG 1.1//EN" "http://www.w3.org/Graphics/SVG/1.1/DTD/svg11.dtd">
<svg xmlns="http://www.w3.org/2000/svg" version="1.1" width="512px" height="512px" style="shape-rendering:geometricPrecision; text-rendering:geometricPrecision; image-rendering:optimizeQuality; fill-rule:evenodd; clip-rule:evenodd" xmlns:xlink="http://www.w3.org/1999/xlink">
<g><path style="opacity:0.964" fill="#ff7e0e" d="M 238.5,-0.5 C 244.167,-0.5 249.833,-0.5 255.5,-0.5C 298.107,3.61996 329.274,24.62 349,62.5C 354.529,75.2821 357.862,88.6155 359,102.5C 359.333,209.167 359.667,315.833 360,422.5C 365.8,444.943 380.3,454.776 403.5,452C 418.884,447.95 428.051,438.116 431,422.5C 431.5,391.502 431.667,360.502 431.5,329.5C 441.833,329.5 452.167,329.5 462.5,329.5C 462.667,361.502 462.5,393.502 462,425.5C 456.514,456.653 438.347,475.82 407.5,483C 376.066,486.864 352.233,475.364 336,448.5C 332.457,441.204 330.124,433.538 329,425.5C 328.667,317.833 328.333,210.167 328,102.5C 322.617,67.4506 303.117,44.2839 269.5,33C 224.569,24.2156 192.069,40.3823 172,81.5C 170.362,85.7215 169.195,90.0549 168.5,94.5C 157.813,94.832 147.146,94.4987 136.5,93.5C 148.565,38.0932 182.565,6.75986 238.5,-0.5 Z"/></g>
<g><path style="opacity:0.974" fill="#ff7e0e" d="M 441.5,-0.5 C 445.167,-0.5 448.833,-0.5 452.5,-0.5C 463.657,7.137 474.99,14.637 486.5,22C 488.378,23.5429 489.878,25.3762 491,27.5C 492.471,51.7682 492.971,76.1015 492.5,100.5C 462.167,100.5 431.833,100.5 401.5,100.5C 401.029,76.1015 401.529,51.7682 403,27.5C 404.122,25.3762 405.622,23.5429 407.5,22C 419.01,14.637 430.343,7.137 441.5,-0.5 Z"/></g>
<g><path style="opacity:0.984" fill="#ff7e0e" d="M 115.5,124.5 C 139.169,124.333 162.836,124.5 186.5,125C 190.275,126.442 193.108,128.942 195,132.5C 196.391,139.746 196.891,147.079 196.5,154.5C 166.167,154.5 135.833,154.5 105.5,154.5C 105.222,147.621 105.555,140.788 106.5,134C 108.342,129.66 111.342,126.493 115.5,124.5 Z"/></g>
<g><path style="opacity:0.99" fill="#ff7e0e" d="M 400.5,129.5 C 431.502,129.333 462.502,129.5 493.5,130C 498.428,131.927 501.594,135.427 503,140.5C 503.667,189.833 503.667,239.167 503,288.5C 501.594,293.573 498.428,297.073 493.5,299C 462.5,299.667 431.5,299.667 400.5,299C 395.572,297.073 392.406,293.573 391,288.5C 390.333,239.167 390.333,189.833 391,140.5C 392.599,135.406 395.766,131.739 400.5,129.5 Z"/></g>
<g><path style="opacity:0.996" fill="#ff7e0e" d="M 17.5,184.5 C 106.501,184.333 195.501,184.5 284.5,185C 289.428,186.927 292.594,190.427 294,195.5C 294.5,230.832 294.667,266.165 294.5,301.5C 198.833,301.5 103.167,301.5 7.5,301.5C 7.33335,266.165 7.50001,230.832 8,195.5C 9.59916,190.406 12.7658,186.739 17.5,184.5 Z"/></g>
<g><path style="opacity:0.997" fill="#ff7e0e" d="M 7.5,331.5 C 103.167,331.5 198.833,331.5 294.5,331.5C 294.5,341.5 294.5,351.5 294.5,361.5C 198.833,361.5 103.167,361.5 7.5,361.5C 7.5,351.5 7.5,341.5 7.5,331.5 Z"/></g>
<g><path style="opacity:0.997" fill="#ff7e0e" d="M 7.5,391.5 C 103.167,391.5 198.833,391.5 294.5,391.5C 294.5,401.5 294.5,411.5 294.5,421.5C 198.833,421.5 103.167,421.5 7.5,421.5C 7.5,411.5 7.5,401.5 7.5,391.5 Z"/></g>
<g><path style="opacity:0.996" fill="#ff7e0e" d="M 284.5,511.5 C 195.5,511.5 106.5,511.5 17.5,511.5C 12.7658,509.261 9.59916,505.594 8,500.5C 7.50007,484.17 7.3334,467.837 7.5,451.5C 103.167,451.5 198.833,451.5 294.5,451.5C 294.667,467.837 294.5,484.17 294,500.5C 292.401,505.594 289.234,509.261 284.5,511.5 Z"/></g>
</svg>
