<?xml version="1.0" encoding="UTF-8"?>
<!DOCTYPE svg PUBLIC "-//W3C//DTD SVG 1.1//EN" "http://www.w3.org/Graphics/SVG/1.1/DTD/svg11.dtd">
<svg xmlns="http://www.w3.org/2000/svg" version="1.1" width="512px" height="512px" style="shape-rendering:geometricPrecision; text-rendering:geometricPrecision; image-rendering:optimizeQuality; fill-rule:evenodd; clip-rule:evenodd" xmlns:xlink="http://www.w3.org/1999/xlink">
<g><path style="opacity:0.991" fill="#ff7e0e" d="M 89.5,63.5 C 125.502,63.3333 161.502,63.5 197.5,64C 202,65.8333 205.167,69 207,73.5C 209.6,89.0612 207.266,103.728 200,117.5C 197.362,125.72 195.195,134.053 193.5,142.5C 160.167,143.833 126.833,143.833 93.5,142.5C 90.6986,128.263 86.1986,114.596 80,101.5C 79.3333,92.1667 79.3333,82.8333 80,73.5C 82.0223,68.98 85.189,65.6467 89.5,63.5 Z"/></g>
<g><path style="opacity:0.999" fill="#ff7e0e" d="M 95.5,159.5 C 127.5,159.5 159.5,159.5 191.5,159.5C 191.5,234.167 191.5,308.833 191.5,383.5C 180.833,383.5 170.167,383.5 159.5,383.5C 159.5,388.833 159.5,394.167 159.5,399.5C 218.167,399.5 276.833,399.5 335.5,399.5C 335.5,388.833 335.5,378.167 335.5,367.5C 324.833,367.5 314.167,367.5 303.5,367.5C 303.5,362.167 303.5,356.833 303.5,351.5C 335.5,351.5 367.5,351.5 399.5,351.5C 399.5,356.833 399.5,362.167 399.5,367.5C 388.833,367.5 378.167,367.5 367.5,367.5C 367.5,378.167 367.5,388.833 367.5,399.5C 401.502,399.333 435.502,399.5 469.5,400C 478.894,405.045 482.228,412.878 479.5,423.5C 482.228,434.122 478.894,441.955 469.5,447C 326.833,447.667 184.167,447.667 41.5,447C 37,445.167 33.8333,442 32,437.5C 31.3333,428.167 31.3333,418.833 32,409.5C 33.8333,405 37,401.833 41.5,400C 70.1647,399.5 98.8314,399.333 127.5,399.5C 127.5,394.167 127.5,388.833 127.5,383.5C 116.833,383.5 106.167,383.5 95.5,383.5C 95.5,308.833 95.5,234.167 95.5,159.5 Z"/></g>
<g><path style="opacity:0.995" fill="#ff7e0e" d="M 237.5,159.5 C 238.833,196.494 239.5,233.827 239.5,271.5C 239.167,308.833 238.833,346.167 238.5,383.5C 228.5,378.5 218.5,373.5 208.5,368.5C 207.167,303.833 207.167,239.167 208.5,174.5C 218.385,169.726 228.051,164.726 237.5,159.5 Z"/></g>
<g><path style="opacity:0.995" fill="#ff7e0e" d="M 255.5,159.5 C 265.934,164.216 276.267,169.216 286.5,174.5C 287.833,239.167 287.833,303.833 286.5,368.5C 276.5,373.5 266.5,378.5 256.5,383.5C 255.5,308.836 255.167,234.17 255.5,159.5 Z"/></g>
<g><path style="opacity:0.993" fill="#ff7e0e" d="M 41.5,175.5 C 51.36,173.35 58.5267,176.683 63,185.5C 63.4997,192.826 63.6663,200.159 63.5,207.5C 68.8333,207.5 74.1667,207.5 79.5,207.5C 79.5,250.167 79.5,292.833 79.5,335.5C 74.1667,335.5 68.8333,335.5 63.5,335.5C 63.6663,342.841 63.4997,350.174 63,357.5C 58.5269,366.482 51.3603,369.649 41.5,367C 37,365.167 33.8333,362 32,357.5C 31.3333,300.167 31.3333,242.833 32,185.5C 34.0223,180.98 37.189,177.647 41.5,175.5 Z"/></g>
<g><path style="opacity:1" fill="#ff7e0e" d="M 303.5,175.5 C 335.5,175.5 367.5,175.5 399.5,175.5C 399.5,180.833 399.5,186.167 399.5,191.5C 367.5,191.5 335.5,191.5 303.5,191.5C 303.5,186.167 303.5,180.833 303.5,175.5 Z"/></g>
<g><path style="opacity:0.989" fill="#ff7e0e" d="M 415.5,175.5 C 449.694,176.855 470.86,194.189 479,227.5C 479.667,256.833 479.667,286.167 479,315.5C 470.86,348.811 449.694,366.145 415.5,367.5C 415.5,303.5 415.5,239.5 415.5,175.5 Z"/></g>
<g><path style="opacity:1" fill="#ff7e0e" d="M 303.5,207.5 C 335.5,207.5 367.5,207.5 399.5,207.5C 399.5,218.167 399.5,228.833 399.5,239.5C 367.5,239.5 335.5,239.5 303.5,239.5C 303.5,228.833 303.5,218.167 303.5,207.5 Z"/></g>
<g><path style="opacity:1" fill="#ff7e0e" d="M 303.5,255.5 C 335.5,255.5 367.5,255.5 399.5,255.5C 399.5,266.167 399.5,276.833 399.5,287.5C 367.5,287.5 335.5,287.5 303.5,287.5C 303.5,276.833 303.5,266.167 303.5,255.5 Z"/></g>
<g><path style="opacity:1" fill="#ff7e0e" d="M 303.5,303.5 C 335.5,303.5 367.5,303.5 399.5,303.5C 399.5,314.167 399.5,324.833 399.5,335.5C 367.5,335.5 335.5,335.5 303.5,335.5C 303.5,324.833 303.5,314.167 303.5,303.5 Z"/></g>
</svg>
